<?xml version="1.0" standalone="no"?>
<!DOCTYPE svg PUBLIC "-//W3C//DTD SVG 20010904//EN"
 "http://www.w3.org/TR/2001/REC-SVG-20010904/DTD/svg10.dtd">
<svg version="1.0" xmlns="http://www.w3.org/2000/svg"
 width="2644.000000pt" height="2644.000000pt" viewBox="0 0 2644.000000 2644.000000"
 preserveAspectRatio="xMidYMid meet">
<metadata>
Created by potrace 1.14, written by Peter Selinger 2001-2017
</metadata>
<g transform="translate(0.000000,2644.000000) scale(0.100000,-0.100000)"
fill="#000000" stroke="none">
<path d="M10349 25888 c0 -18 -1 -3263 -1 -7210 l-1 -7178 -21 -1 c-11 0 -615
-1 -1341 -2 l-1320 -2 1 -45 c3 -156 21 -259 67 -375 113 -285 361 -497 667
-571 61 -14 127 -18 365 -20 160 -2 297 -3 306 -3 16 -1 17 -120 15 -1564 l-1
-1562 -125 1 c-131 2 -406 12 -500 19 -30 2 -118 7 -195 10 -227 10 -289 14
-520 30 -38 3 -106 7 -150 10 -44 3 -111 7 -150 10 -38 3 -104 7 -145 10 -84
6 -171 13 -245 20 -27 2 -88 7 -135 10 -47 4 -98 8 -115 10 -16 2 -68 6 -115
10 -47 4 -98 8 -115 10 -16 2 -61 6 -100 10 -38 3 -86 7 -105 10 -19 2 -62 7
-95 10 -33 3 -76 8 -95 10 -19 2 -62 7 -95 10 -33 3 -71 7 -85 10 -14 2 -56 7
-95 10 -38 3 -81 8 -95 10 -38 5 -141 17 -175 21 -16 1 -64 7 -105 13 -41 6
-99 13 -129 16 -30 4 -61 8 -70 10 -9 1 -43 6 -76 10 -32 4 -66 8 -75 10 -8 1
-42 6 -75 10 -78 10 -72 9 -265 39 -91 13 -183 27 -205 31 -23 3 -50 7 -62 9
-11 3 -38 7 -59 10 -192 31 -532 92 -894 162 -28 6 -469 102 -593 130 -42 9
-77 20 -77 23 0 4 15 15 32 26 18 10 69 42 113 70 44 28 103 66 130 83 28 18
255 162 504 321 l455 289 26 -37 c14 -20 55 -79 91 -131 404 -591 433 -632
441 -613 12 30 66 180 263 733 103 289 205 575 227 635 22 61 46 130 55 155 8
25 19 49 23 53 4 5 50 -24 102 -65 53 -40 110 -84 128 -98 19 -14 56 -43 84
-65 49 -38 195 -149 344 -263 40 -30 75 -53 78 -50 2 3 6 14 8 25 3 11 25 98
50 194 25 96 59 228 76 294 17 66 56 217 86 335 31 118 65 254 76 302 l21 86
36 -13 c30 -11 222 -95 378 -166 23 -10 44 -19 47 -19 7 0 5 -8 256 900 66
239 138 498 160 575 38 139 237 858 261 945 7 25 13 50 15 57 1 7 11 43 23 80
41 138 141 507 141 523 0 14 -232 862 -305 1115 -8 28 -75 271 -150 540 -229
830 -230 834 -250 905 -8 25 -30 106 -50 180 -53 194 -93 331 -98 336 -4 4
-46 -14 -162 -66 -113 -51 -298 -130 -299 -128 -1 2 -21 77 -44 168 -143 564
-273 1064 -278 1069 -4 4 -138 -97 -425 -319 -75 -58 -151 -116 -169 -130 -19
-14 -56 -42 -83 -64 -27 -21 -53 -34 -57 -30 -4 5 -24 54 -43 109 -19 55 -55
156 -80 225 -109 307 -261 732 -289 810 -16 47 -34 94 -39 105 -4 11 -33 92
-64 180 -31 88 -58 161 -59 162 -1 2 -38 -49 -82 -112 -43 -63 -117 -171 -164
-239 -47 -68 -134 -196 -194 -284 l-109 -160 -81 51 c-132 82 -1254 795 -1341
852 -44 28 -174 111 -290 184 -115 73 -325 206 -465 295 -140 90 -257 162
-258 160 -2 -1 -4 -2417 -4 -5368 0 -2951 -1 -5366 -2 -5366 -6 0 -167 58
-281 100 -223 83 -436 175 -630 271 -99 50 -198 93 -220 96 -131 18 -250 -102
-230 -233 11 -76 128 -486 193 -679 31 -91 91 -257 101 -280 5 -11 24 -58 42
-105 98 -255 290 -664 429 -915 469 -845 1053 -1570 1775 -2207 100 -87 183
-156 415 -341 8 -7 74 -55 145 -106 72 -52 146 -106 165 -120 30 -23 184 -124
345 -227 88 -56 287 -171 440 -254 76 -42 393 -200 399 -200 3 0 44 -18 93
-41 261 -120 539 -229 813 -317 l126 -41 779 4 c989 5 2745 14 3870 20 479 2
1354 7 1945 10 591 3 1473 8 1960 10 487 2 1385 7 1995 10 1429 8 2482 14
2860 15 199 0 313 5 340 13 53 16 102 67 149 158 53 102 114 215 148 272 15
26 28 50 28 53 0 3 19 35 43 72 24 37 55 87 69 112 51 89 263 398 375 548 336
448 699 834 1158 1231 17 14 50 42 75 61 25 19 51 40 58 48 8 7 30 25 50 40
21 15 39 30 42 33 11 13 283 212 400 291 253 173 562 354 840 494 139 70 338
164 346 164 2 0 27 11 56 24 30 14 78 34 108 46 30 11 64 25 75 30 178 85 901
310 1135 354 14 2 48 10 75 16 28 6 61 14 75 16 14 2 45 9 70 14 25 5 59 12
75 15 17 2 73 11 125 20 130 22 166 28 295 44 84 11 111 21 153 56 48 41 58
66 91 246 16 90 53 288 81 439 27 151 61 334 75 405 13 72 27 146 30 165 3 19
10 55 15 80 5 25 18 97 30 160 11 63 22 125 24 136 2 12 7 37 10 55 3 19 17
95 31 169 14 74 28 149 31 165 2 17 7 37 9 45 2 8 7 35 10 60 3 25 8 52 10 60
2 8 7 31 10 50 3 19 10 53 15 75 5 22 11 58 14 80 4 23 9 52 11 65 8 41 16 84
20 110 2 14 6 36 9 50 9 42 15 73 21 105 8 50 76 420 90 490 3 17 8 43 10 59
2 15 6 35 9 45 3 9 8 34 11 56 3 23 8 52 10 65 3 14 7 36 10 50 2 14 18 97 34
185 17 88 33 176 36 195 5 35 20 112 31 160 14 64 16 140 4 174 -35 106 -157
168 -261 132 -19 -7 -107 -66 -195 -132 -343 -258 -737 -506 -1118 -703 -90
-47 -98 -49 -94 -28 3 12 35 139 72 282 37 143 69 267 71 275 3 18 24 98 31
121 4 14 35 3 184 -63 99 -43 184 -77 189 -74 5 3 11 18 14 33 2 16 28 111 56
213 29 102 54 192 56 200 1 8 19 71 38 140 20 69 47 166 61 215 62 227 168
609 288 1040 71 259 131 475 132 480 2 6 11 36 20 68 10 33 16 73 14 90 -3 18
-32 131 -66 252 -34 121 -86 308 -115 415 -30 107 -69 249 -87 315 -17 66 -36
131 -40 145 -5 14 -41 142 -80 285 -39 143 -80 291 -91 329 -12 38 -22 76 -24
85 -2 9 -20 75 -40 146 -20 72 -49 177 -65 235 -56 203 -68 241 -74 247 -5 5
-157 -58 -324 -135 -19 -8 -37 -11 -41 -6 -7 8 -62 220 -214 819 -22 88 -42
162 -43 164 -2 1 -130 -95 -285 -214 -155 -119 -288 -219 -295 -222 -7 -2 -17
11 -24 34 -13 38 -136 385 -147 413 -3 8 -7 20 -8 25 -4 14 -94 266 -105 290
-8 21 -94 260 -151 423 -17 51 -35 89 -39 85 -8 -8 -227 -327 -358 -521 -52
-77 -81 -112 -92 -109 -14 4 -796 498 -1610 1019 -237 151 -326 204 -330 198
-3 -5 -5 -1939 -4 -4299 l1 -4291 -46 -1 c-73 -1 -217 2 -326 6 -152 6 -266
14 -420 29 -27 3 -81 8 -120 12 -38 3 -73 8 -77 10 -4 3 -51 7 -105 9 -236 10
-377 -80 -503 -324 -187 -362 -501 -657 -1010 -950 -50 -28 -327 -168 -396
-199 -148 -67 -543 -222 -566 -222 -10 0 -11 2380 0 2381 4 0 144 2 312 3 329
4 318 3 454 46 404 130 671 522 647 951 -1 16 -274 17 -3738 17 -2056 1 -3744
1 -3752 1 -8 1 24 25 70 54 46 29 193 123 326 208 134 84 251 159 260 164 10
6 36 22 58 37 22 14 117 74 210 133 94 60 193 123 220 140 248 161 723 459
737 462 9 3 21 -3 27 -14 5 -11 76 -116 157 -234 81 -118 190 -277 243 -354
195 -286 267 -388 275 -389 6 -1 479 1308 706 1953 34 95 35 98 52 84 20 -16
338 -260 645 -496 l282 -216 15 52 c8 29 56 212 105 407 89 345 166 649 251
975 22 87 43 161 45 163 3 3 531 -224 578 -249 12 -7 19 -6 22 3 4 12 24 84
114 408 22 80 76 278 121 440 45 162 93 333 106 380 12 47 45 166 73 265 27
99 91 329 141 510 51 182 114 411 141 510 27 99 60 218 74 265 110 389 316
1141 318 1159 0 10 -4 36 -11 57 -15 50 -132 471 -137 493 -3 14 -62 229 -145
521 -50 179 -281 1010 -305 1100 -12 47 -46 168 -75 270 -28 102 -53 192 -55
200 -2 8 -17 65 -35 125 -17 61 -33 119 -35 130 -3 11 -12 43 -20 70 -8 28
-72 257 -141 510 -70 253 -130 463 -134 468 -3 4 -28 -4 -56 -17 -27 -13 -98
-45 -159 -71 -132 -57 -187 -81 -240 -105 -69 -32 -138 -60 -141 -58 -2 3 -46
171 -159 613 -31 121 -69 270 -85 330 -16 61 -54 209 -85 330 -86 336 -84 329
-103 312 -54 -45 -924 -708 -927 -705 -2 1 -49 131 -105 288 -56 157 -115 321
-131 365 -16 44 -61 170 -100 280 -64 180 -115 323 -184 515 -13 36 -37 103
-53 150 -17 47 -61 169 -97 272 l-67 188 -27 -38 c-15 -20 -51 -73 -81 -117
-30 -44 -58 -84 -62 -90 -5 -5 -36 -50 -70 -100 -83 -122 -332 -485 -412 -601
l-49 -71 -41 27 c-23 15 -165 106 -316 202 -151 96 -783 498 -1405 893 -1150
731 -1330 845 -1352 859 -9 5 -13 -2 -14 -26z m194 -265 c23 -15 50 -32 60
-38 20 -11 651 -412 757 -481 36 -23 268 -170 515 -327 248 -157 455 -290 462
-296 7 -6 14 -11 17 -11 3 0 891 -562 991 -628 22 -14 42 -27 44 -29 3 -2
-124 -188 -534 -785 -44 -65 -102 -150 -130 -190 -27 -40 -117 -172 -200 -293
-83 -121 -182 -265 -220 -320 -83 -122 -764 -1115 -850 -1240 -149 -217 -795
-1160 -863 -1260 -41 -60 -80 -115 -86 -122 -8 -9 -11 808 -11 3017 0 1667 1
3030 3 3030 1 0 21 -12 45 -27z m3636 -1119 c21 -60 132 -370 246 -689 113
-319 229 -643 256 -720 28 -77 54 -149 59 -160 5 -11 15 -40 23 -65 8 -25 18
-52 22 -61 7 -18 -11 -33 -450 -368 -137 -106 -257 -197 -265 -204 -8 -7 -80
-62 -160 -123 -80 -61 -322 -247 -539 -413 -217 -167 -448 -344 -515 -394 -67
-51 -123 -95 -126 -98 -3 -3 -102 -79 -220 -169 -118 -91 -222 -170 -230 -177
-28 -22 -853 -655 -974 -746 -67 -51 -128 -97 -136 -104 -17 -14 -314 -243
-374 -288 l-40 -30 44 65 c40 60 735 1074 942 1375 49 72 313 456 586 855 274
399 531 775 573 835 41 61 169 247 284 415 115 168 245 358 290 422 44 64 114
166 155 228 88 130 304 446 420 613 45 65 84 117 86 115 2 -3 21 -53 43 -114z
m1629 -1281 c17 -71 54 -213 81 -318 27 -104 79 -307 116 -450 36 -143 80
-311 96 -372 16 -62 29 -119 29 -126 0 -8 -104 -59 -257 -127 -142 -62 -280
-123 -308 -136 -51 -23 -686 -303 -1370 -604 -209 -92 -407 -180 -440 -195
-33 -15 -73 -33 -90 -40 -16 -8 -430 -190 -920 -406 -489 -216 -948 -418
-1020 -449 -71 -31 -265 -117 -430 -190 -165 -73 -307 -135 -315 -138 -13 -5
684 533 1215 937 33 25 62 48 65 51 6 6 -27 -19 645 496 308 236 565 432 570
437 6 4 67 51 137 105 69 53 188 145 265 204 76 58 453 348 838 643 385 295
714 547 730 560 160 123 320 245 325 245 3 0 20 -57 38 -127z m1227 -2095
c142 -513 279 -1009 305 -1103 26 -93 75 -271 110 -395 34 -124 66 -238 71
-255 9 -30 117 -421 124 -453 3 -9 13 -46 23 -82 10 -36 47 -167 81 -293 l63
-227 -57 -208 c-31 -114 -61 -220 -66 -237 -9 -28 -76 -271 -84 -305 -3 -13
-47 -171 -290 -1045 -201 -723 -268 -965 -280 -1010 -15 -56 -71 -259 -140
-505 -45 -160 -83 -300 -106 -388 -9 -33 -16 -42 -28 -39 -9 3 -196 84 -416
182 -220 97 -413 182 -430 190 -16 7 -52 23 -80 35 -27 12 -160 71 -295 130
-135 59 -270 119 -300 133 -30 13 -93 41 -140 62 -47 20 -98 43 -115 50 -43
20 -779 345 -1115 492 -157 69 -310 137 -340 150 -30 14 -111 50 -180 80 -69
30 -138 61 -155 68 -56 26 -399 177 -510 225 -60 26 -135 59 -165 73 -72 33
-129 58 -220 97 -41 18 -94 41 -116 51 -44 19 -510 225 -874 386 -118 52 -228
101 -245 108 -128 58 -417 185 -420 185 -2 0 -36 15 -77 34 l-73 35 0 968 c0
532 4 974 8 981 5 6 12 12 17 12 8 0 850 369 1163 509 61 27 38 17 725 320
326 144 614 271 640 282 26 12 56 25 67 30 11 4 55 24 98 44 43 19 80 35 82
35 2 0 37 15 77 34 40 19 125 56 188 84 176 76 710 311 758 333 23 10 61 28
85 38 23 11 312 139 643 284 330 146 622 275 650 287 27 12 63 28 79 35 59 27
472 209 590 260 66 29 140 61 165 73 25 11 68 30 95 42 28 11 68 30 90 40 22
10 45 19 51 19 5 1 126 -419 269 -931z m-14909 -2384 c110 -70 258 -164 329
-209 72 -45 461 -292 865 -549 404 -258 745 -474 758 -482 l22 -15 -65 -94
c-36 -52 -95 -138 -131 -191 -78 -112 -227 -330 -318 -464 -35 -52 -111 -163
-168 -246 -56 -82 -159 -232 -228 -332 -69 -101 -233 -340 -365 -532 -132
-193 -323 -472 -425 -620 -332 -485 -489 -713 -497 -721 -4 -4 -8 1029 -8
2296 0 2122 1 2302 16 2294 9 -4 106 -65 215 -135z m2939 -1694 c2 -8 30 -88
63 -177 l59 -163 -136 -105 c-75 -58 -242 -186 -371 -285 -129 -99 -327 -251
-439 -338 -113 -86 -230 -176 -260 -199 -31 -23 -191 -145 -356 -273 -355
-273 -323 -249 -494 -379 -75 -58 -318 -245 -541 -416 -223 -171 -411 -315
-419 -320 -8 -4 21 43 64 106 124 179 169 245 380 554 109 160 222 324 250
365 93 135 756 1101 854 1245 52 77 147 215 211 307 63 92 183 267 265 388
140 206 323 473 446 652 l53 76 184 -511 c100 -282 185 -519 187 -527z m17375
342 c360 -229 657 -417 659 -419 4 -3 -19 -39 -201 -303 -62 -91 -194 -284
-293 -428 -99 -145 -236 -345 -305 -445 -69 -100 -301 -437 -514 -749 -214
-312 -392 -566 -395 -564 -5 3 -7 3565 -2 3573 0 1 90 -54 199 -123 108 -70
492 -313 852 -542z m1345 -509 c159 -447 186 -528 173 -537 -17 -13 -145 -111
-521 -400 -150 -114 -343 -263 -430 -330 -802 -614 -1306 -1001 -1325 -1018
-13 -11 -25 -18 -27 -16 -2 2 127 192 285 423 159 231 367 534 462 673 95 139
202 295 238 347 361 525 795 1160 893 1307 29 43 55 78 58 78 3 0 90 -237 194
-527z m-17816 190 c5 -21 39 -155 76 -298 37 -143 69 -267 71 -275 1 -8 26
-105 55 -215 28 -110 52 -206 53 -214 1 -9 -71 -46 -199 -102 -110 -49 -209
-93 -220 -98 -11 -5 -36 -16 -55 -24 -89 -39 -410 -180 -450 -199 -25 -11 -97
-43 -160 -70 -63 -27 -133 -58 -155 -68 -50 -23 -98 -45 -400 -177 -132 -58
-262 -115 -290 -128 -27 -12 -108 -48 -180 -79 -71 -32 -149 -66 -173 -77 -24
-11 -134 -60 -245 -109 -111 -48 -228 -100 -259 -114 -105 -47 -133 -59 -138
-61 -8 -3 -50 -21 -115 -50 -33 -15 -75 -33 -92 -41 -18 -8 -48 -20 -65 -28
-129 -56 -589 -260 -612 -272 -16 -8 -31 -13 -33 -11 -2 2 155 125 348 273
193 148 377 289 409 314 32 25 226 174 431 332 206 157 572 438 815 625 243
186 454 348 470 360 69 52 882 677 909 698 67 53 189 145 192 145 1 0 7 -17
12 -37z m4729 -313 c97 -140 199 -289 227 -330 28 -41 144 -210 257 -375 113
-165 239 -349 281 -410 88 -128 248 -361 383 -559 132 -193 243 -354 419 -611
83 -121 245 -357 360 -525 115 -168 232 -339 260 -380 217 -313 498 -725 502
-735 2 -7 -2 -15 -11 -18 -8 -3 -66 -39 -128 -79 -63 -40 -123 -78 -134 -85
-10 -7 -81 -52 -156 -100 -76 -48 -156 -99 -178 -113 -23 -14 -327 -207 -677
-430 -349 -223 -688 -438 -752 -478 -64 -40 -280 -178 -481 -306 -201 -128
-367 -229 -370 -225 -4 6 -5 6035 -1 6049 1 3 7 -4 13 -15 6 -11 90 -135 186
-275z m374 169 c109 -48 149 -65 203 -90 22 -10 216 -95 430 -189 215 -95 404
-178 420 -185 87 -39 643 -285 1885 -832 118 -52 269 -119 335 -148 66 -29
219 -97 340 -150 121 -53 234 -103 250 -110 84 -38 500 -222 565 -250 41 -18
98 -42 125 -55 77 -34 135 -60 330 -145 l180 -79 -56 -221 c-31 -121 -89 -346
-129 -500 -39 -154 -94 -370 -122 -480 -28 -110 -53 -202 -54 -204 -2 -2 -41
25 -86 60 -46 35 -110 84 -143 109 -237 182 -1012 776 -1020 782 -31 24 -163
126 -660 507 -302 232 -563 432 -580 445 -16 13 -111 86 -210 162 -99 76 -227
174 -285 218 -181 139 -426 327 -553 424 -67 51 -129 99 -137 105 -14 12 -136
105 -620 476 -124 94 -234 179 -244 188 -10 8 -75 58 -143 109 -68 52 -121 94
-119 94 3 0 47 -18 98 -41z m-152 -107 c74 -57 149 -115 165 -127 17 -13 85
-66 152 -117 223 -171 445 -341 683 -523 129 -100 304 -234 389 -299 84 -64
158 -122 165 -127 6 -5 115 -89 242 -187 759 -581 1113 -852 1164 -892 32 -25
137 -106 235 -180 97 -74 185 -142 195 -150 10 -8 28 -22 40 -30 12 -8 28 -20
34 -25 8 -8 359 -277 404 -311 4 -2 -105 -308 -348 -984 -20 -58 -97 -273
-170 -478 -106 -295 -136 -370 -145 -360 -7 7 -68 94 -135 193 -68 99 -153
223 -189 275 -36 52 -120 175 -186 273 -66 97 -253 371 -415 607 -398 581
-518 756 -647 945 -60 88 -181 264 -268 390 -87 127 -186 271 -220 320 -92
134 -890 1299 -1103 1610 -102 149 -190 276 -196 284 -17 23 5 8 154 -107z
m13704 -284 c111 -432 176 -684 176 -689 0 -4 -28 -19 -62 -34 -35 -15 -81
-36 -103 -45 -22 -10 -83 -37 -135 -60 -52 -23 -115 -51 -140 -62 -25 -12 -79
-35 -120 -53 -41 -18 -100 -44 -130 -57 -30 -14 -185 -83 -345 -153 -434 -191
-893 -394 -955 -422 -30 -14 -64 -29 -75 -33 -11 -4 -117 -50 -235 -103 -732
-324 -665 -298 -564 -221 65 50 1599 1228 1867 1434 111 86 258 198 327 251
69 52 199 152 289 222 91 70 168 127 171 127 4 0 19 -46 34 -102z m-17850
-568 c2 -8 29 -107 61 -220 31 -113 108 -392 171 -620 63 -228 137 -494 164
-590 27 -96 106 -380 175 -630 69 -250 139 -504 156 -563 l30 -108 -40 -142
c-80 -285 -124 -443 -131 -472 -10 -39 -180 -652 -226 -815 -20 -69 -37 -132
-39 -140 -2 -8 -26 -96 -53 -195 -28 -99 -87 -313 -132 -475 -103 -374 -170
-611 -175 -628 -3 -9 -9 -10 -22 -2 -10 5 -115 52 -233 104 -118 51 -235 103
-260 114 -25 11 -103 46 -175 78 -194 84 -1313 578 -1365 602 -25 11 -198 88
-385 170 -379 167 -1264 557 -1310 577 -16 8 -133 60 -260 115 -126 56 -243
108 -260 115 -16 8 -149 66 -295 130 -146 64 -267 119 -270 122 -6 6 -7 1472
0 1483 5 7 95 50 145 70 17 7 579 254 670 295 116 52 149 67 220 98 44 19 100
44 125 55 25 11 101 45 170 75 69 30 204 90 300 132 96 42 267 118 380 167
113 50 230 102 260 115 30 14 107 48 170 75 103 45 164 72 255 113 17 8 129
57 250 111 214 94 329 144 1105 487 206 91 467 206 580 256 l205 90 17 -67
c10 -37 20 -74 22 -82z m18453 -165 c15 -56 138 -502 169 -606 13 -47 26 -94
28 -105 3 -17 36 -132 81 -289 8 -27 57 -205 109 -395 53 -190 114 -410 136
-490 23 -80 43 -153 45 -162 2 -9 13 -51 25 -92 l21 -76 -36 -132 c-20 -73
-56 -203 -80 -288 -41 -144 -145 -521 -366 -1320 -94 -340 -138 -497 -144
-518 -3 -9 -20 -5 -62 14 -32 14 -260 115 -508 224 -430 189 -1025 452 -1110
490 -22 10 -94 41 -160 70 -66 29 -145 64 -175 77 -30 14 -145 65 -255 113
-110 48 -225 99 -255 113 -30 13 -113 50 -185 82 -71 31 -143 63 -160 70 -87
39 -728 321 -835 368 l-124 54 -1 569 c-1 313 1 576 3 584 3 14 457 218 1697
762 149 66 284 125 300 132 93 42 150 67 431 191 170 75 323 142 339 150 17 7
73 32 125 55 52 23 114 50 136 60 23 11 115 51 205 90 90 40 182 80 204 91
137 65 381 167 386 161 3 -4 11 -25 16 -47z m-3613 -3420 c41 -60 135 -198
208 -305 74 -107 327 -476 563 -820 235 -344 458 -668 494 -720 169 -245 220
-324 216 -331 -3 -4 -26 -20 -52 -35 -26 -15 -52 -32 -58 -36 -5 -5 -77 -52
-160 -104 -82 -52 -177 -112 -210 -133 -335 -213 -1168 -742 -1195 -758 l-35
-22 1 1787 c1 983 2 1791 3 1796 0 5 34 -40 75 -100 41 -60 108 -158 150 -219z
m338 211 c40 -19 181 -81 313 -139 132 -58 265 -116 295 -130 30 -14 163 -72
295 -130 240 -105 334 -147 390 -172 17 -8 93 -42 170 -75 77 -34 154 -68 170
-75 17 -8 170 -75 340 -150 171 -75 326 -143 345 -152 19 -9 77 -35 130 -58
52 -23 160 -70 240 -105 80 -35 149 -66 153 -70 5 -4 -14 -95 -42 -201 -27
-107 -73 -284 -101 -394 -28 -110 -53 -202 -55 -203 -2 -2 -12 2 -23 9 -18 14
-648 497 -898 689 -67 52 -231 178 -364 280 -133 102 -403 309 -600 460 -197
151 -460 354 -586 450 -281 216 -260 199 -252 200 3 0 39 -15 80 -34z m-152
-105 c69 -52 146 -111 171 -130 25 -20 61 -47 79 -61 18 -14 56 -43 84 -65 28
-22 78 -61 111 -85 33 -25 66 -50 75 -57 31 -25 264 -204 915 -704 369 -283
686 -526 704 -540 l33 -26 -35 -99 c-20 -54 -80 -225 -135 -379 -55 -154 -124
-346 -152 -427 -29 -82 -55 -148 -59 -148 -3 0 -37 47 -74 103 -62 93 -187
277 -480 704 -59 87 -150 219 -200 293 -51 74 -131 191 -179 260 -47 69 -123
180 -169 247 -46 68 -190 277 -319 465 -129 188 -275 401 -324 473 -49 71
-114 166 -144 209 -31 44 -49 76 -41 71 7 -5 70 -52 139 -104z m-19499 -876
c217 -317 426 -622 464 -678 65 -93 468 -680 864 -1259 86 -126 226 -330 313
-455 86 -126 153 -231 150 -235 -7 -7 -370 -238 -1307 -833 -319 -202 -602
-382 -630 -400 -27 -18 -96 -62 -152 -98 -57 -37 -104 -63 -104 -59 -5 27 -3
4592 2 4592 3 0 183 -259 400 -575z m129 483 c44 -20 413 -183 675 -298 110
-48 225 -99 255 -113 30 -13 145 -64 255 -112 110 -48 223 -98 250 -110 55
-25 320 -142 820 -362 182 -80 355 -157 385 -170 30 -14 89 -40 130 -58 68
-29 527 -231 625 -275 22 -10 85 -38 140 -63 55 -25 129 -57 165 -72 109 -46
102 -28 68 -162 -16 -65 -31 -126 -33 -135 -2 -9 -13 -50 -24 -90 -11 -40 -54
-207 -96 -370 -41 -163 -79 -306 -83 -318 -7 -18 -20 -10 -152 91 -80 61 -154
118 -165 127 -11 9 -65 51 -120 92 -86 65 -550 421 -730 560 -33 25 -244 187
-470 360 -225 173 -412 317 -415 320 -3 3 -50 39 -105 81 -55 41 -228 174
-385 294 -157 120 -321 246 -365 279 -44 34 -86 67 -95 73 -17 14 -457 353
-510 393 -45 34 -77 62 -65 57 6 -2 26 -11 45 -19z m147 -323 c193 -148 410
-315 483 -370 72 -55 137 -105 143 -110 7 -6 158 -123 337 -260 179 -137 451
-346 605 -464 154 -118 325 -249 380 -290 55 -42 105 -80 111 -86 6 -5 26 -21
44 -35 18 -14 140 -107 270 -207 l238 -182 -110 -303 c-60 -167 -115 -321
-123 -343 -7 -22 -36 -105 -65 -185 -29 -80 -58 -163 -66 -185 -7 -22 -27 -78
-44 -125 -18 -47 -43 -118 -57 -157 -14 -40 -28 -73 -31 -73 -4 0 -55 71 -114
158 -243 358 -504 740 -1065 1557 -131 192 -573 837 -726 1060 -61 88 -198
288 -305 445 -107 157 -224 327 -260 379 -78 114 -115 137 355 -224z m7771
-735 c-1 -171 1 -312 3 -315 3 -2 34 15 69 38 36 23 184 118 330 210 146 93
339 216 428 273 l164 104 3795 0 3795 0 -6 -39 c-23 -167 -112 -339 -235 -458
-90 -87 -219 -161 -346 -200 -58 -17 -252 -18 -4950 -20 l-4890 -2 -85 23
c-208 55 -364 166 -474 336 -41 62 -93 171 -101 208 -2 9 -8 37 -14 62 -6 25
-11 55 -11 68 l0 22 1264 0 1265 0 -1 -310z m15927 250 c20 -22 18 -50 -15
-225 -11 -60 -23 -123 -26 -140 -3 -16 -27 -149 -54 -295 -27 -146 -52 -278
-54 -295 -3 -16 -35 -190 -71 -385 -36 -195 -68 -368 -70 -385 -3 -16 -8 -43
-12 -60 -3 -16 -7 -37 -8 -45 -1 -8 -9 -53 -18 -100 -18 -93 -24 -129 -32
-175 -3 -16 -12 -64 -20 -105 -15 -79 -25 -132 -30 -165 -2 -11 -29 -157 -60
-325 -51 -276 -73 -397 -89 -485 -3 -16 -17 -91 -31 -165 -15 -74 -28 -146
-30 -160 -2 -14 -17 -99 -34 -190 -17 -91 -33 -181 -37 -200 -3 -19 -7 -39 -8
-45 -2 -5 -6 -32 -11 -58 -9 -57 -29 -73 -97 -81 -68 -8 -202 -28 -288 -42
-25 -4 -216 -38 -275 -50 -451 -85 -1015 -261 -1504 -471 -340 -145 -650 -306
-1011 -525 -176 -108 -691 -473 -761 -540 -8 -7 -54 -47 -104 -87 -259 -212
-613 -557 -851 -831 -21 -25 -41 -47 -44 -50 -5 -4 -183 -221 -213 -260 -265
-334 -523 -729 -737 -1128 -59 -110 -99 -173 -111 -177 -11 -4 -385 -8 -832
-10 -447 -2 -1307 -7 -1912 -10 -605 -3 -1505 -8 -2000 -10 -1301 -7 -2743
-14 -3900 -20 -555 -3 -1408 -7 -1895 -10 -487 -2 -1393 -7 -2015 -10 l-1130
-6 -175 59 c-221 75 -462 169 -625 241 -22 10 -69 31 -105 47 -126 55 -457
223 -600 304 -240 136 -625 382 -770 492 -14 10 -94 71 -178 135 -155 117
-374 298 -467 384 -27 25 -77 70 -109 100 -137 126 -373 366 -530 539 -58 64
-279 327 -324 385 -200 260 -435 601 -574 835 -404 679 -700 1393 -884 2132
-16 63 -16 69 0 92 9 15 25 26 37 26 11 0 102 -40 202 -89 243 -119 511 -231
807 -335 l155 -54 2 -434 c1 -238 2 -450 2 -470 l1 -38 73 47 c193 124 820
522 880 558 l69 42 156 -39 c129 -31 489 -112 592 -132 14 -2 79 -16 145 -29
96 -20 382 -74 490 -92 116 -20 144 -25 170 -30 17 -3 86 -14 155 -25 69 -11
136 -22 150 -25 14 -2 41 -7 60 -9 78 -11 184 -27 204 -31 12 -2 39 -6 61 -9
22 -3 72 -10 110 -15 39 -6 93 -13 120 -16 28 -4 61 -8 75 -11 14 -2 50 -6 80
-10 30 -3 64 -8 75 -10 11 -2 49 -6 84 -10 36 -3 68 -7 71 -9 3 -1 39 -6 80
-10 41 -4 77 -8 80 -10 3 -2 43 -6 90 -10 47 -4 87 -8 90 -10 3 -2 42 -6 87
-10 45 -4 90 -8 100 -10 10 -1 52 -6 93 -10 41 -4 86 -8 100 -11 14 -2 59 -6
100 -9 41 -3 89 -7 105 -10 17 -2 64 -7 105 -10 41 -3 91 -8 110 -10 19 -2 71
-6 115 -10 44 -3 96 -8 115 -10 19 -2 76 -7 125 -11 50 -3 106 -7 125 -9 19
-1 78 -5 130 -9 52 -4 120 -9 150 -11 57 -5 162 -12 285 -19 39 -3 115 -8 170
-11 55 -3 134 -8 175 -10 109 -5 303 -15 390 -20 41 -2 145 -7 230 -10 85 -3
205 -8 265 -10 102 -4 212 -8 610 -20 778 -23 2177 -23 2840 0 257 9 446 16
510 20 39 2 129 6 200 10 72 3 155 8 185 10 30 2 102 7 160 10 58 3 125 7 150
9 25 3 90 8 145 11 55 4 116 8 135 10 19 2 71 6 115 10 44 3 96 8 115 10 19 2
67 7 105 10 39 3 88 8 110 10 22 2 69 7 105 10 36 3 81 8 100 10 19 2 60 7 90
10 30 4 66 8 80 10 14 2 55 6 92 10 37 3 77 8 89 10 12 3 47 7 78 11 87 9 114
12 146 18 17 3 57 8 90 12 33 3 69 8 80 10 11 2 40 7 65 10 25 3 52 8 62 9 9
2 38 7 65 11 26 3 55 8 65 10 9 1 38 6 65 10 26 3 57 8 68 10 11 3 36 7 55 10
19 3 42 7 50 9 8 2 33 7 55 10 23 3 50 7 62 9 12 3 43 8 70 12 26 5 50 8 53 9
3 1 19 4 35 8 17 4 44 9 60 12 17 2 75 14 130 25 55 12 111 24 125 26 227 42
705 165 995 255 88 28 167 52 175 54 31 8 251 87 390 140 315 121 614 265 856
411 474 286 802 611 968 959 44 92 102 156 173 191 49 24 70 29 138 29 74 0
243 -13 255 -20 3 -2 43 -6 90 -10 47 -3 101 -8 120 -10 90 -10 408 -24 576
-25 l101 0 0 -360 c0 -198 2 -362 4 -364 2 -1 83 47 179 109 96 61 393 250
659 419 l483 307 132 24 c194 37 394 81 543 120 51 14 97 25 101 25 5 0 45
-53 89 -117 44 -65 109 -160 144 -211 58 -85 64 -91 72 -70 5 13 22 59 37 103
16 44 54 150 85 235 31 85 61 169 66 186 8 26 18 33 76 54 136 47 381 143 545
215 l168 73 24 -19 c34 -27 40 -24 54 24 12 41 14 43 131 100 259 125 534 283
824 473 131 86 411 284 467 331 91 76 124 87 155 53z m-1952 -735 c86 -66 153
-123 149 -127 -18 -18 -551 -233 -558 -225 -2 2 5 28 15 58 80 222 126 353
144 405 l22 62 36 -27 c19 -14 106 -80 192 -146z m-6813 -92 c1 -24 1 -2338 0
-2384 0 -26 -5 -38 -17 -42 -10 -3 -103 -30 -208 -61 -168 -50 -617 -168 -685
-180 -14 -2 -43 -9 -65 -14 -22 -6 -51 -13 -65 -16 -35 -7 -170 -34 -200 -41
-30 -6 -347 -66 -375 -70 -11 -2 -36 -6 -55 -9 -19 -3 -44 -7 -55 -10 -11 -2
-40 -7 -65 -11 -25 -4 -52 -9 -60 -10 -8 -2 -35 -6 -60 -9 -25 -3 -55 -8 -67
-10 -13 -3 -91 -14 -175 -26 -84 -12 -164 -23 -178 -25 -33 -5 -106 -14 -150
-19 -19 -3 -75 -9 -125 -15 -49 -7 -110 -14 -135 -17 -25 -3 -58 -7 -75 -9
-16 -2 -61 -7 -100 -10 -38 -4 -77 -8 -85 -10 -8 -2 -58 -7 -110 -10 -52 -4
-104 -9 -115 -11 -11 -2 -54 -6 -95 -9 -101 -8 -238 -19 -365 -30 -27 -3 -90
-7 -140 -10 -49 -3 -117 -8 -150 -10 -310 -20 -463 -28 -765 -40 -96 -4 -204
-8 -240 -10 -378 -18 -1847 -25 -2515 -12 -469 9 -748 18 -765 22 -13 4 -15
187 -15 1570 l0 1565 4137 0 c3934 0 4138 -1 4138 -17z m5710 -419 c18 -25 30
-47 28 -49 -4 -3 -145 -42 -179 -49 -13 -2 -53 -11 -89 -20 -35 -8 -65 -14
-66 -13 -2 2 264 173 273 176 1 1 16 -20 33 -45z"/>
</g>
</svg>
